# xmcd
#
# Track frame offsets: 
#        150
#        13607
#        26174
#        38376
#        52541
#        64465
#        77044
#        88172
#        101831
#        115896
#        126777
#        136200
#        148694
#        161739
#        173793
#        183102
#        195771
#        205590
#        215231
#        227142
#        237396
#        248040
#        260312
#        270320
#
# Disc length: 3744 seconds
#
# Revision: 0
# Processed by: cddbd v1.5.2PL0 Copyright (c) Steve Scherf et al.
# Submitted via: ExactAudioCopy v0.99pb4
#
DISCID=450e9e18
DTITLE=Little Willie John - Heaven All Around Me - The Later King Sess
DTITLE=ions 1961-63
DYEAR=2009
DGENRE=R&B
TTITLE0=(I'm Afraid) The Masquerade Is Over
TTITLE1=Every Beat Of My Heart
TTITLE2=Until Again My Love
TTITLE3=Inside Information
TTITLE4=Take My Love (I Want to Give It All To You)
TTITLE5=Big Blue Diamonds
TTITLE6=My Baby's In Love With Another Guy
TTITLE7=My Love Will Never Change
TTITLE8=Mister Glenn
TTITLE9=Doll Face
TTITLE10=Heaven All Around Me
TTITLE11=Don't Play With Love
TTITLE12=She Thinks I Still Care
TTITLE13=Come Back To Me
TTITLE14=Half A Love
TTITLE15=Without A Friend
TTITLE16=(I've Got) Spring Fever
TTITLE17=Bill Bailey
TTITLE18=Come On Sugar
TTITLE19=Now You Know
TTITLE20=Like Boy, Like Girl
TTITLE21=I Wish I Could Cry
TTITLE22=Don't You Know I'm In Love
TTITLE23=Rock Love
EXTD=
EXTT0=
EXTT1=
EXTT2=
EXTT3=
EXTT4=
EXTT5=
EXTT6=
EXTT7=
EXTT8=
EXTT9=
EXTT10=
EXTT11=
EXTT12=
EXTT13=
EXTT14=
EXTT15=
EXTT16=
EXTT17=
EXTT18=
EXTT19=
EXTT20=
EXTT21=
EXTT22=
EXTT23=
PLAYORDER=
